<svg xmlns="http://www.w3.org/2000/svg" viewBox="0 0 512 512" role="img" aria-label="Sun Yat-sen University emblem">
  <defs>
    <path id="topText" d="M132 178a150 150 0 0 1 248 0"/>
    <path id="bottomText" d="M104 350a184 184 0 0 0 304 0"/>
    <style>
      .seal { fill: none; stroke: #004b00; stroke-linecap: round; stroke-linejoin: round; }
      .fill { fill: #004b00; }
      .text { fill: #004b00; font-family: Georgia, 'Times New Roman', SimSun, serif; font-weight: 700; letter-spacing: 4px; }
    </style>
  </defs>

  <circle class="seal" cx="256" cy="256" r="238" stroke-width="20"/>
  <circle class="seal" cx="256" cy="256" r="211" stroke-width="5"/>
  <circle class="seal" cx="256" cy="256" r="184" stroke-width="3"/>

  <text class="text" font-size="54">
    <textPath href="#topText" startOffset="50%" text-anchor="middle">中山大学</textPath>
  </text>
  <text class="text" font-size="34" letter-spacing="3">
    <textPath href="#bottomText" startOffset="50%" text-anchor="middle">SUN YAT-SEN UNIVERSITY</textPath>
  </text>

  <path class="seal" d="M151 266c23-57 72-88 105-88s82 31 105 88" stroke-width="16"/>
  <path class="seal" d="M151 266c20-24 53-37 105-37s85 13 105 37" stroke-width="10"/>
  <path class="seal" d="M161 267c15 42 49 67 95 67s80-25 95-67" stroke-width="16"/>

  <path class="seal" d="M207 196c5-39 23-65 49-65s44 26 49 65" stroke-width="13"/>
  <path class="seal" d="M219 197c8-22 21-34 37-34s29 12 37 34" stroke-width="7"/>

  <path class="fill" d="M250 110h12v27h-12z"/>
  <path class="fill" d="M228 153h56l-28-26z"/>
  <path class="fill" d="M235 168h42v28h-42z"/>
  <path class="fill" d="M222 196h68v16h-68z"/>
  <path class="fill" d="M232 212h48v86h-48z"/>
  <circle cx="256" cy="235" r="10" class="fill"/>
  <path d="M252 258h8v35h-8z" fill="#ffffff"/>

  <path class="fill" d="M174 270h164v17H174z"/>
  <path class="fill" d="M187 287c8 20 25 34 48 39v26h-34v-20h-18v52h146v-52h-18v20h-34v-26c23-5 40-19 48-39h-28c-9 10-23 16-41 16s-32-6-41-16z"/>
  <path class="fill" d="M219 384h74v20h-74z"/>

  <text x="256" y="365" text-anchor="middle" class="text" font-size="30" letter-spacing="1">1924</text>
</svg>
